<svg version="1.1" id="Layer_1" xmlns="http://www.w3.org/2000/svg" xmlns:xlink="http://www.w3.org/1999/xlink" x="0px" y="0px"
	 width="100%" viewBox="0 0 500 500" enable-background="new 0 0 500 500" xml:space="preserve">

<path fill="#8EC440" opacity="1.000000" stroke="none" 
	d="
M74.598549,239.454163 
	C64.186348,231.294983 59.681370,217.657654 63.974075,206.989502 
	C73.219170,209.422653 82.530388,211.843811 91.825623,214.324890 
	C124.626343,223.080032 157.399139,231.940796 190.225662,240.597992 
	C218.934647,248.169281 234.972824,274.937195 227.431458,303.708771 
	C216.627991,344.925812 205.535767,386.067139 194.557220,427.238251 
	C194.221802,428.496124 193.779373,429.725464 193.219757,431.497101 
	C182.691803,428.368591 175.459457,421.890472 172.001572,411.970093 
	C170.304626,407.101715 169.765961,401.503784 170.075104,396.317810 
	C171.491592,372.556213 173.477921,348.829254 175.096466,325.078766 
	C176.654053,302.223114 167.230164,286.003723 146.696106,275.799286 
	C124.779869,264.907928 102.844086,254.055862 80.933311,243.153534 
	C78.853745,242.118805 76.891571,240.848160 74.598549,239.454163 
z"/>
<path fill="#40BFEC" opacity="1.000000" stroke="none" 
	d="
M219.075806,153.982086 
	C231.683304,128.809830 244.034775,103.910881 256.532104,79.085373 
	C263.182434,65.874771 277.849304,59.400276 291.638855,63.663555 
	C290.837830,66.801270 290.055756,69.981941 289.213440,73.146584 
	C278.857513,112.055069 268.618103,150.995163 258.089600,189.856934 
	C250.041183,219.564316 224.147430,234.847900 194.242355,227.128555 
	C152.841949,216.441925 111.591347,205.174866 70.281395,194.138397 
	C69.367996,193.894379 68.512215,193.434708 67.678841,193.095688 
	C70.722511,179.053497 84.835342,168.850388 99.804176,169.846848 
	C122.723686,171.372574 145.646835,172.878250 168.542221,174.718491 
	C181.786972,175.783051 194.712708,175.437851 205.800247,167.136200 
	C210.649155,163.505692 214.549377,158.608124 219.075806,153.982086 
z"/>
<path fill="#EE5952" opacity="1.000000" stroke="none" 
	d="
M254.152786,398.164978 
	C250.453400,405.671844 247.006516,412.888031 243.347794,419.995209 
	C236.584854,433.132446 220.769180,440.067596 208.127914,435.161407 
	C210.684647,425.454712 213.235306,415.676605 215.836700,405.911987 
	C224.409714,373.732361 233.079361,341.578247 241.562439,309.374969 
	C249.333618,279.874207 276.362427,263.954010 305.830811,271.794769 
	C346.217346,282.540527 386.587738,293.347168 426.961456,304.141052 
	C428.681976,304.601044 430.366577,305.195282 432.011139,305.709229 
	C429.821930,319.003448 416.294403,329.705719 401.622711,329.146759 
	C386.482269,328.569946 371.373444,327.153137 356.252350,326.081879 
	C345.453705,325.316895 334.669403,324.189758 323.857941,323.799957 
	C302.857544,323.042786 287.171326,331.951721 277.588013,350.804260 
	C269.663361,366.393890 262.057068,382.145386 254.152786,398.164978 
z"/>
<path fill="#F3BA18" opacity="1.000000" stroke="none" 
	d="
M306.472717,68.325172 
	C320.289795,70.520630 330.975067,85.137367 329.934204,99.902573 
	C328.165741,124.989098 326.417755,150.077576 324.499115,175.152832 
	C322.958984,195.280991 332.683136,213.057343 350.937927,222.244781 
	C374.148254,233.926300 397.521088,245.284958 420.727417,256.974335 
	C432.831512,263.071381 439.104248,275.739471 437.064728,289.005829 
	C436.921112,289.940155 436.501831,290.832123 436.099762,292.091309 
	C418.656342,287.432037 401.489960,282.838013 384.318726,278.262177 
	C359.056519,271.530182 333.729645,265.031525 308.542969,258.028290 
	C279.990082,250.089081 264.872131,223.123764 272.524261,194.580460 
	C275.283386,184.288696 278.005890,173.987122 280.759766,163.693970 
	C289.238495,132.002762 297.724304,100.313431 306.472717,68.325172 
z"/>
<path fill="#8DC340" opacity="1.000000" stroke="none" 
	d="
M120.989143,291.041901 
	C121.592590,290.687347 121.883018,290.524048 122.168793,290.352966 
	C134.336044,283.070221 138.152191,283.008270 148.681488,292.336517 
	C159.292450,301.737152 164.551773,313.658936 161.703506,328.074951 
	C161.220703,330.518585 159.282822,333.388214 157.172058,334.678345 
	C145.385040,341.882751 133.485214,348.933472 121.340126,355.512817 
	C108.264687,362.596130 91.771553,357.751373 84.210487,345.150024 
	C76.664330,332.573517 80.163483,315.765778 92.658669,307.603271 
	C101.702942,301.695068 111.315056,296.656128 120.989143,291.041901 
z"/>
<path fill="#40BFEC" opacity="1.000000" stroke="none" 
	d="
M152.926514,137.115723 
	C149.909424,131.906189 146.901962,127.104279 144.283081,122.099068 
	C137.094711,108.360611 141.877716,91.869835 155.056274,84.423241 
	C168.235413,76.976311 185.003067,81.321877 192.938492,94.552841 
	C199.865387,106.102203 206.594818,117.779709 213.006943,129.619705 
	C214.256866,131.927658 214.570480,135.547531 213.745529,138.043167 
	C208.544312,153.778183 189.733673,165.039154 173.436203,162.795288 
	C169.131134,162.202545 166.041672,160.402237 163.941010,156.519745 
	C160.460541,150.087051 156.735458,143.786713 152.926514,137.115723 
z"/>
<path fill="#EE5951" opacity="1.000000" stroke="none" 
	d="
M336.751587,343.267059 
	C343.005920,354.103577 349.056427,364.632599 355.115417,375.156708 
	C363.587341,389.871857 359.744110,406.843201 346.124573,414.832336 
	C332.111755,423.052063 315.575867,418.340973 306.740570,403.428925 
	C300.296661,392.553070 293.849457,381.663940 287.946320,370.493958 
	C286.522919,367.800568 286.133514,363.564636 287.169067,360.733124 
	C292.917175,345.016479 310.937805,334.677032 327.553192,336.868042 
	C331.639038,337.406830 334.858307,338.995514 336.751587,343.267059 
z"/>
<path fill="#F2BA18" opacity="1.000000" stroke="none" 
	d="
M340.983490,192.912964 
	C339.918579,189.545517 338.721405,186.581161 338.143250,183.500610 
	C335.775787,170.886017 337.508545,167.218201 348.510681,160.819901 
	C358.004883,155.298538 367.475861,149.735046 377.035461,144.328873 
	C391.068085,136.393143 407.810211,140.750610 415.701385,154.272873 
	C423.482178,167.606018 418.808197,184.670609 405.000336,192.797821 
	C393.815063,199.381393 382.474426,205.701401 371.300568,212.303925 
	C367.789673,214.378494 364.518433,214.504166 360.889160,212.849686 
	C351.876221,208.740906 345.243988,202.289093 340.983490,192.912964 
z"/>
</svg>